HIERARCHY
ROOT hip
{
  OFFSET 0 0 0
  CHANNELS 6 Xposition Yposition Zposition Zrotation Xrotation Yrotation
  JOINT abdomen
  {
    OFFSET 0.0706196 7.23992 -0.013175
    CHANNELS 3 Zrotation Xrotation Yrotation
    JOINT chest
    {
      OFFSET 0.00039959 16.5318 -0.76556
      CHANNELS 3 Zrotation Xrotation Yrotation
      JOINT neck
      {
        OFFSET -1.19209e-005 36.467 -4.32768
        CHANNELS 3 Zrotation Xrotation Yrotation
        JOINT head
        {
          OFFSET 0 10.4509 2.78238
          CHANNELS 3 Zrotation Xrotation Yrotation
          End Site
          {
            OFFSET 0 13.6483 2.8643
          }
        }
      }
      JOINT lCollar
      {
        OFFSET 3.05824 30.965 -6.75914
        CHANNELS 3 Zrotation Xrotation Yrotation
        JOINT lShldr
        {
          OFFSET 15.0645 0.0677185 -0.441113
          CHANNELS 3 Zrotation Xrotation Yrotation
          JOINT lForeArm
          {
            OFFSET 29.6373 0.773624 0.573946
            CHANNELS 3 Zrotation Xrotation Yrotation
            JOINT lHand
            {
              OFFSET 27.1742 0.78167 2.11782
              CHANNELS 3 Zrotation Xrotation Yrotation
              End Site
              {
                OFFSET 8.97646 -0.320343 0.148497
              }
            }
          }
        }
      }
      JOINT rCollar
      {
        OFFSET -3.05827 30.965 -6.75913
        CHANNELS 3 Zrotation Xrotation Yrotation
        JOINT rShldr
        {
          OFFSET -15.0646 0.0677185 -0.441067
          CHANNELS 3 Zrotation Xrotation Yrotation
          JOINT rForeArm
          {
            OFFSET -29.6374 0.773643 0.574036
            CHANNELS 3 Zrotation Xrotation Yrotation
            JOINT rHand
            {
              OFFSET -27.1742 0.781677 2.11789
              CHANNELS 3 Zrotation Xrotation Yrotation
              End Site
              {
                OFFSET -8.97647 -0.320343 0.148525
              }
            }
          }
        }
      }
    }
  }
  JOINT lThigh
  {
    OFFSET 8.73786 0 -1.00136e-005
    CHANNELS 3 Zrotation Xrotation Yrotation
    JOINT lShin
    {
      OFFSET -0.218641 -43.6387 -2.09099
      CHANNELS 3 Zrotation Xrotation Yrotation
      JOINT lFoot
      {
        OFFSET -0.769395 -43.3017 -5.75581
        CHANNELS 3 Zrotation Xrotation Yrotation
        JOINT lToe
        {
          OFFSET 2.4699 -8.89869 14.0045
          CHANNELS 3 Zrotation Xrotation Yrotation
          End Site
          {
            OFFSET -0.0326996 -0.013798 4.5702
          }
        }
      }
    }
  }
  JOINT rThigh
  {
    OFFSET -8.73786 0 1.62125e-005
    CHANNELS 3 Zrotation Xrotation Yrotation
    JOINT rShin
    {
      OFFSET 0.218546 -43.6387 -2.09099
      CHANNELS 3 Zrotation Xrotation Yrotation
      JOINT rFoot
      {
        OFFSET 0.769259 -43.3017 -5.75565
        CHANNELS 3 Zrotation Xrotation Yrotation
        JOINT rToe
        {
          OFFSET -2.37053 -8.88459 14.0306
          CHANNELS 3 Zrotation Xrotation Yrotation
          End Site
          {
            OFFSET 0.0327187 0 4.57023
          }
        }
      }
    }
  }
}
MOTION
Frames:	20
Frame Time:	0.0333333
-13.0265 95.1229 -9.32787 0.703932 -7.46704 0.994584 -5.32233 2.62232 0.679873 6.57293 9.47831 -2.54688 2.3556 0.767031 1.14836 -4.2951 -3.03003 2.53752 -7.94293 0.135647 -3.3643 -66.2614 6.13609 -9.00434 0.896662 0.323204 -18.4202 10.1467 -3.83533 -0.0965287 13.5775 -0.442437 1.00641 67.4678 -3.90024 -4.58109 -1.37689 0.373336 27.7228 -4.84555 -1.53798 -1.17792 9.46279 -4.81803 -5.42363 -2.03214 13.2716 0.265523 -5.5984 -1.93577 -0.605266 0.0389757 -0.108843 9.99937 3.58655 -0.304362 -7.97382 1.40214 9.24947 -0.133669 -6.69402 -2.55607 0.786551 4.77759e-006 -4.26887e-007 -9.99999 
-12.9301 95.1516 -9.36423 0.676978 -7.17811 0.829079 -5.30269 2.62236 0.676961 6.55708 9.46918 -2.53922 2.42143 0.705192 1.23825 -4.32729 -1.55373 2.69993 -7.46232 0.111705 -3.20266 -66.1691 5.21257 -9.31852 0.87515 0.319091 -17.9987 10.6838 -5.43102 1.18148 13.6559 -0.419575 1.12326 67.4762 -4.29515 -3.72043 -1.38543 0.373526 27.8871 -4.91844 -1.6329 -1.07695 9.38972 -4.77157 -5.57331 -2.03934 13.3169 0.267279 -5.62374 -1.82594 -0.583245 0.0389827 -0.10884 9.99937 3.61311 -0.734448 -7.57716 1.37722 9.08809 -0.129344 -6.75811 -2.44208 0.799633 8.77043e-006 -1.63284e-005 -9.99999 
-12.8281 95.1871 -9.41011 0.680358 -7.18057 0.855265 -5.28252 2.62241 0.67398 6.54079 9.4599 -2.53139 2.40476 0.668546 1.25933 -4.19589 0.463205 2.81871 -7.09445 0.0894106 -3.03627 -65.9871 4.5738 -9.46886 0.851204 0.314325 -17.5286 10.7494 -6.28638 1.85862 13.6106 -0.396733 1.21108 67.628 -4.43509 -2.97938 -1.38305 0.373482 27.8415 -5.13491 -2.20829 -0.792154 9.30483 -4.84427 -5.81372 -2.07027 13.5111 0.274877 -5.67783 -1.69484 -0.529034 0.0389909 -0.108842 9.99938 3.60381 -0.956466 -7.34621 1.36162 8.987 -0.126676 -6.79437 -2.37163 0.807793 -1.47388e-006 9.92512e-006 -9.99999 
-12.7222 95.227 -9.46398 0.689207 -7.26453 0.911099 -5.26188 2.62245 0.670927 6.52412 9.45048 -2.52339 2.38869 0.725285 1.28171 -4.03891 2.09424 2.90929 -6.90167 0.0595456 -2.79287 -65.4421 4.47087 -9.53546 0.814717 0.306651 -16.8113 9.43708 -5.34506 1.08633 13.6199 -0.376002 1.30217 67.634 -4.41856 -2.33433 -1.3863 0.373534 27.9041 -5.17649 -2.69639 -0.610095 9.21385 -4.97463 -6.10862 -2.11441 13.7876 0.285895 -5.76599 -1.54114 -0.456239 0.0389805 -0.108844 9.99938 3.5521 -0.93951 -7.26778 1.35487 8.94319 -0.125526 -6.78806 -2.3419 0.810683 7.2469e-006 -5.76297e-006 -9.99999 
-12.614 95.2691 -9.52429 0.703486 -7.4054 0.998871 -5.24075 2.62249 0.667806 6.50704 9.44091 -2.51522 2.40074 0.872391 1.33136 -3.89727 3.27882 2.9946 -6.82653 0.0219894 -2.47602 -64.6366 4.72085 -9.50635 0.768935 0.296345 -15.9085 7.21434 -3.16697 -0.587807 13.782 -0.35533 1.42434 67.2986 -4.17333 -1.77616 -1.40433 0.373839 28.2508 -4.80658 -2.91246 -0.677447 9.11721 -5.15001 -6.44326 -2.16832 14.1244 0.299631 -5.87829 -1.37216 -0.369911 0.0389854 -0.108841 9.99937 3.47694 -0.798694 -7.24574 1.35065 8.91584 -0.124811 -6.74582 -2.32618 0.811786 1.3199e-005 -1.81427e-006 -9.99999 
-12.505 95.3112 -9.5895 0.723203 -7.57854 1.12094 -5.21916 2.62254 0.66462 6.48958 9.4312 -2.5069 2.41284 1.0544 1.38617 -3.72882 4.54635 3.08099 -6.79524 -0.00639007 -2.23257 -64.1252 4.92393 -9.05731 0.735094 0.288253 -15.2383 5.75456 -1.83944 -1.63598 13.9988 -0.335845 1.54959 66.8131 -3.77484 -1.31369 -1.42794 0.374065 28.7055 -4.26484 -3.04176 -0.844274 9.01543 -5.35771 -6.80284 -2.22853 14.4995 0.315334 -6.00424 -1.19518 -0.27512 0.0389799 -0.108841 9.99937 3.3874 -0.589493 -7.28078 1.34891 8.90455 -0.124518 -6.68893 -2.32451 0.811152 3.84106e-006 4.26887e-007 -9.99999 
-12.3969 95.351 -9.65808 0.748338 -7.75932 1.27963 -5.19711 2.62257 0.661369 6.47173 9.42136 -2.49842 2.4249 1.26083 1.44423 -3.54271 5.85503 3.16542 -6.77166 -0.0212184 -2.10305 -64.0139 4.99176 -8.1344 0.718008 0.284009 -14.8994 5.3943 -1.92726 -1.75691 14.1539 -0.324487 1.62645 66.4755 -3.54289 -0.951466 -1.44626 0.374125 29.0581 -3.95297 -3.06624 -0.948761 8.90925 -5.58508 -7.17253 -2.29153 14.8904 0.33217 -6.13279 -1.01698 -0.176897 0.038976 -0.108826 9.99937 3.29277 -0.367375 -7.37376 1.34966 8.90938 -0.124644 -6.63878 -2.33733 0.80873 4.52371e-006 2.4546e-006 -10 
-12.2913 95.3861 -9.72849 0.778764 -7.92308 1.47722 -5.17459 2.62261 0.658051 6.45352 9.41138 -2.48979 2.43679 1.48121 1.50361 -3.3481 7.163 3.24541 -6.76632 -0.0313429 -2.01506 -64.0236 5.07111 -6.98359 0.706841 0.28118 -14.6778 5.36669 -2.43517 -1.62013 14.2006 -0.32786 1.62146 66.3989 -3.60616 -0.638291 -1.45568 0.374097 29.2393 -4.03247 -2.94617 -0.932762 8.79971 -5.81954 -7.5374 -2.35374 15.2751 0.349195 -6.25206 -0.844016 -0.0802033 0.038979 -0.10884 9.99937 3.20229 -0.187721 -7.52578 1.35279 8.92974 -0.125173 -6.61663 -2.36456 0.804268 1.04873e-005 -9.8184e-006 -9.99999 
-12.1898 95.4144 -9.79919 0.814189 -8.04516 1.71594 -5.15164 2.62266 0.654674 6.43493 9.40129 -2.481 2.4485 1.70503 1.56241 -3.15414 8.42844 3.31906 -6.77562 -0.039502 -1.94601 -64.1314 5.11654 -5.71479 0.699066 0.279165 -14.5232 5.5544 -3.22458 -1.3179 14.1982 -0.340007 1.57135 66.438 -3.80155 -0.360726 -1.46135 0.374074 29.3486 -4.29338 -2.7297 -0.869277 8.68807 -6.04854 -7.88245 -2.41154 15.6312 0.365377 -6.34942 -0.682481 0.0100382 0.0389766 -0.10884 9.99937 3.1248 -0.105918 -7.73814 1.35828 8.96529 -0.126106 -6.64384 -2.40661 0.797275 6.71017e-006 1.02453e-005 -9.99999 
-12.0939 95.4335 -9.86864 0.854054 -8.10092 1.99797 -5.12825 2.62271 0.651235 6.41598 9.39107 -2.47208 2.45996 1.92185 1.61872 -2.97008 9.60953 3.38503 -6.79599 -0.0482745 -1.8733 -64.3116 5.0831 -4.43865 0.692108 0.277371 -14.3853 5.83967 -4.15606 -0.942056 14.1899 -0.349694 1.53006 66.5044 -4.01017 -0.18207 -1.46555 0.374043 29.4292 -4.57943 -2.52753 -0.794601 8.57593 -6.25959 -8.19261 -2.4613 15.9367 0.379578 -6.41156 -0.538295 0.0889278 0.0389707 -0.108845 9.99937 3.05182 -0.102327 -8.0215 1.36669 9.01984 -0.127541 -6.71821 -2.46487 0.787358 4.26399e-006 2.13443e-007 -9.99999 
-12.0053 95.4312 -9.93531 0.903418 -8.10406 2.36046 -5.10447 2.62277 0.647737 6.39671 9.38072 -2.46301 2.47119 2.12119 1.67065 -2.80536 10.6644 3.44253 -6.8238 -0.0602517 -1.77431 -64.536 4.92781 -3.26656 0.683496 0.275106 -14.2137 6.10079 -5.09183 -0.588417 14.2188 -0.345811 1.55158 66.5079 -4.11365 -0.166063 -1.47049 0.374007 29.5241 -4.73407 -2.4497 -0.746902 8.46509 -6.44046 -8.45271 -2.49932 16.1695 0.390597 -6.42467 -0.417134 0.151555 0.038999 -0.108856 9.99938 2.97097 -0.118247 -8.37362 1.37816 9.09414 -0.129506 -6.81898 -2.53828 0.774795 5.30616e-006 -3.09493e-006 -10 
-11.9255 95.4052 -9.99766 0.965218 -8.0863 2.82011 -5.08025 2.6228 0.64418 6.37707 9.37028 -2.45381 2.48227 2.29254 1.71628 -2.66959 11.5513 3.4911 -6.87413 -0.0780968 -1.62979 -64.873 4.53021 -2.1736 0.673083 0.272321 -14.0062 6.39802 -6.23937 -0.171309 14.2995 -0.321024 1.66803 66.4177 -4.07819 -0.369857 -1.47782 0.373933 29.6654 -4.73367 -2.57579 -0.731719 8.3575 -6.57875 -8.64748 -2.52186 16.3071 0.397201 -6.37463 -0.324553 0.192893 0.0389793 -0.108838 9.99937 2.88503 -0.150345 -8.77657 1.39181 9.18255 -0.131864 -6.9397 -2.62316 0.760105 5.00614e-007 4.37559e-006 -10 
-11.8563 95.368 -10.0541 1.0354 -8.05009 3.34819 -5.05565 2.62285 0.640567 6.35712 9.35971 -2.44447 2.4932 2.42544 1.75373 -2.57247 12.2285 3.53057 -6.94805 -0.100009 -1.45708 -65.332 3.91909 -1.10942 0.662576 0.269488 -13.7971 6.82139 -7.65502 0.367507 14.408 -0.282166 1.84458 66.2852 -3.96766 -0.746051 -1.48601 0.373832 29.8232 -4.65561 -2.83023 -0.730383 8.24588 -6.63084 -8.67225 -2.50445 16.2009 0.392098 -6.12269 -0.30459 0.180398 0.0389727 -0.108841 9.99937 2.7967 -0.195489 -9.21243 1.40691 9.2803 -0.134504 -7.074 -2.71648 0.743801 2.86362e-006 3.9487e-006 -9.99999 
-11.7991 95.3321 -10.1032 1.10992 -7.99798 3.91605 -5.03066 2.62289 0.6369 6.33685 9.34904 -2.43501 2.50408 2.5094 1.78109 -2.52385 12.6541 3.56074 -7.02084 -0.121775 -1.28838 -65.8034 3.28165 -0.144391 0.652247 0.266658 -13.5909 7.28036 -8.97824 0.880407 14.5291 -0.239614 2.03484 66.1433 -3.81042 -1.20183 -1.4925 0.373739 29.9477 -4.49456 -3.09002 -0.74549 8.12917 -6.59654 -8.50362 -2.44214 15.8192 0.374081 -5.63579 -0.369955 0.103569 0.0389721 -0.108845 9.99937 2.70878 -0.250502 -9.66326 1.42259 9.38174 -0.137266 -7.21537 -2.81436 0.726503 6.18606e-006 1.28066e-006 -10 
-11.7556 95.3102 -10.1434 1.18478 -7.93264 4.49503 -5.00529 2.62293 0.633179 6.31624 9.33828 -2.42542 2.51499 2.53394 1.79648 -2.53353 12.7864 3.58117 -7.06787 -0.13882 -1.15588 -66.1867 2.81058 0.656408 0.642295 0.263894 -13.3921 7.67022 -9.85241 1.20822 14.6482 -0.204397 2.19255 66.0227 -3.6351 -1.64456 -1.49464 0.373703 29.989 -4.24535 -3.23224 -0.780101 8.01838 -6.52819 -8.24844 -2.36034 15.3158 0.351026 -5.05964 -0.479375 -0.00839009 0.0389729 -0.10884 9.99937 2.62408 -0.312531 -10.1111 1.43811 9.48206 -0.140027 -7.35736 -2.91336 0.708849 1.49762e-005 8.11085e-006 -9.99999 
-11.7273 95.3348 -10.173 1.2561 -7.85692 5.05654 -4.97954 2.62298 0.629408 6.29536 9.3274 -2.41571 2.52618 2.52091 1.8043 -2.58185 12.7313 3.59605 -7.05964 -0.146137 -1.09181 -66.4659 2.60634 1.17861 0.632577 0.26116 -13.1978 7.97132 -9.88419 1.17573 14.7966 -0.183043 2.29764 65.8936 -3.42443 -2.07826 -1.48805 0.373801 29.8621 -3.73007 -3.16674 -0.878575 7.92476 -6.4778 -8.01372 -2.2841 14.8445 0.330162 -4.5371 -0.589239 -0.122028 0.0389714 -0.108843 9.99937 2.54555 -0.378585 -10.538 1.4526 9.57573 -0.142632 -7.4934 -3.00939 0.691597 1.0304e-005 1.28066e-006 -9.99998 
-11.7147 95.3581 -10.1995 1.32015 -7.77376 5.57194 -4.95345 2.62302 0.625586 6.27416 9.31644 -2.40589 2.53786 2.49937 1.81028 -2.64211 12.6248 3.61011 -7.02034 -0.147126 -1.07294 -66.6728 2.59864 1.45646 0.623411 0.258533 -13.0141 8.18804 -9.33749 0.884085 14.9503 -0.169222 2.37253 65.7829 -3.16519 -2.54386 -1.47528 0.373961 29.6167 -3.06081 -2.96661 -1.01318 7.86015 -6.49678 -7.90664 -2.23809 14.5589 0.317864 -4.2066 -0.65219 -0.199254 0.0389878 -0.108834 9.99937 2.47619 -0.445858 -10.9259 1.46525 9.65751 -0.144928 -7.61694 -3.09844 0.675575 8.11333e-006 5.33608e-007 -9.99999 
-11.7165 95.3372 -10.2297 1.37333 -7.68626 6.0127 -4.927 2.62305 0.621713 6.25268 9.30538 -2.39595 2.55002 2.46979 1.81452 -2.71348 12.4695 3.62323 -7.00595 -0.149554 -1.04817 -66.781 2.72541 1.65028 0.6157 0.256306 -12.8599 8.24366 -8.84161 0.587127 15.0112 -0.155108 2.43486 65.8041 -2.89251 -3.00414 -1.46428 0.374052 29.4046 -2.66753 -2.75127 -1.07669 7.81023 -6.6166 -7.96313 -2.22598 14.4836 0.314665 -4.04842 -0.663731 -0.234525 0.0389856 -0.108843 9.99938 2.41912 -0.511612 -11.2569 1.47527 9.72225 -0.146752 -7.72144 -3.17646 0.661616 8.23861e-006 -9.8184e-006 -9.99999 
-11.7317 95.3058 -10.2617 1.41223 -7.5976 6.35034 -4.90022 2.62311 0.617794 6.23093 9.29425 -2.3859 2.56254 2.43257 1.81712 -2.79509 12.2684 3.63532 -7.05723 -0.155651 -1.01055 -66.7237 3.08564 1.81238 0.610471 0.254781 -12.755 8.06494 -8.60493 0.331918 14.8924 -0.140547 2.47513 66.0821 -2.61665 -3.48482 -1.45606 0.374098 29.2467 -2.81016 -2.52673 -0.987517 7.75853 -6.80761 -8.11471 -2.23034 14.5108 0.315813 -3.94782 -0.656531 -0.253107 0.0389819 -0.108829 9.99937 2.37752 -0.573038 -11.5129 1.48184 9.76458 -0.147956 -7.80035 -3.23918 0.6506 6.81291e-006 5.33608e-007 -9.99999 
-11.7593 95.2707 -10.2936 1.43354 -7.51093 6.55637 -4.87311 2.62314 0.61383 6.20889 9.28302 -2.37575 2.5754 2.38818 1.81817 -2.88611 12.0242 3.64625 -7.1334 -0.163336 -0.96705 -66.5684 3.58123 1.88961 0.606704 0.253677 -12.6795 7.72367 -8.41646 0.0742856 14.6808 -0.126344 2.50303 66.492 -2.32856 -3.96095 -1.4496 0.374119 29.1221 -3.22979 -2.28664 -0.823223 7.71382 -7.02945 -8.31182 -2.24392 14.5952 0.319412 -3.89876 -0.637472 -0.261178 0.0389825 -0.10885 9.99937 2.35456 -0.627617 -11.6759 1.48413 9.77937 -0.148376 -7.84712 -3.28226 0.643458 -1.95361e-007 8.11085e-006 -9.99999 
